# xmcd
#
# Track frame offsets:
#	150
#	15140
#	36757
#	50316
#	68277
#	80267
#	98831
#	120681
#	135936
#	152928
#	171010
#	189890
#	205692
#	221872
#	243001
#
# Disc length: 3413 seconds
#
# Revision: 1
# Processed by: cddbd v1.5.2PL0 Copyright (c) Steve Scherf et al.
# Submitted via: audiograbber 1.83.01
#
DISCID=ae0d530f
DTITLE=Stefan Nicolai - PANPIPE PLAYS
DYEAR=1900
DGENRE=
TTITLE0=Take Me Home, Country Roads
TTITLE1=Lady
TTITLE2=Annie's Song
TTITLE3=Lucille
TTITLE4=Thank God I'm A Country Boy
TTITLE5=Islands in The Stream
TTITLE6=Sunshine On My Shoulders
TTITLE7=For The Good Times
TTITLE8=We've Got Tonight
TTITLE9=Leaving On A Jet Plane
TTITLE10=She Believes in Me
TTITLE11=Calypso
TTITLE12=You Decorated My Live
TTITLE13=Back Home Again
TTITLE14=Ruby, Don't Take Your Love To Town
EXTD=
EXTT0=
EXTT1=
EXTT2=
EXTT3=
EXTT4=
EXTT5=
EXTT6=
EXTT7=
EXTT8=
EXTT9=
EXTT10=
EXTT11=
EXTT12=
EXTT13=
EXTT14=
PLAYORDER=
